<svg xmlns="http://www.w3.org/2000/svg" xmlns:xlink="http://www.w3.org/1999/xlink" viewBox="0 0 240 240"><defs><clipPath id="a"><circle cx="120.00005" cy="119.99999" r="82" fill="none"/></clipPath><clipPath id="b"><rect x="37.48892" y="37.04222" width="165.02219" height="136.89298" fill="none"/></clipPath></defs><title>L07-M1</title><g clip-path="url(#a)"><g clip-path="url(#b)"><circle cx="120.00005" cy="119.99999" r="82" fill="#e8f2df"/></g><path d="M84.00005,90.5h-34a2,2,0,0,1-2-2v-26a2,2,0,0,1,2-2h34a2,2,0,0,1,2,2v26A2,2,0,0,1,84.00005,90.5Z" fill="#dce5d3"/><rect x="52.00005" y="64.49999" width="30" height="22" rx="2" fill="#f4ffeb"/><rect x="54.00005" y="68.49999" width="14" height="2" rx="1" fill="#e8f2df"/><rect x="54.00005" y="72.49999" width="13" height="2" rx="1" fill="#e8f2df"/><rect x="54.00005" y="76.49999" width="8" height="2" rx="1" fill="#e8f2df"/><rect x="54.00005" y="80.49999" width="10" height="2" rx="1" fill="#e8f2df"/><path d="M76.44535,82.33036l-1.4453-.96354-1.4453.96354a1,1,0,0,1-1.5547-.832V74.36682h6v7.13149A1,1,0,0,1,76.44535,82.33036Z" fill="#e8f2df"/><circle cx="75.00005" cy="69.49999" r="1" fill="#dce5d3"/><circle cx="75.00005" cy="77.49999" r="1" fill="#dce5d3"/><circle cx="79.00005" cy="73.49999" r="1" fill="#dce5d3"/><circle cx="71.00005" cy="73.49999" r="1" fill="#dce5d3"/><circle cx="77.82848" cy="70.67156" r="1" fill="#dce5d3"/><circle cx="72.17162" cy="76.32841" r="1" fill="#dce5d3"/><circle cx="77.82848" cy="76.32841" r="1" fill="#dce5d3"/><circle cx="72.17162" cy="70.67156" r="1" fill="#dce5d3"/><circle cx="76.53078" cy="69.80447" r="1" fill="#dce5d3"/><circle cx="73.46931" cy="77.1955" r="1" fill="#dce5d3"/><circle cx="73.46931" cy="69.80447" r="1" fill="#dce5d3"/><circle cx="76.53078" cy="77.1955" r="1" fill="#dce5d3"/><circle cx="71.30453" cy="71.96925" r="1" fill="#dce5d3"/><circle cx="78.69557" cy="75.03072" r="1" fill="#dce5d3"/><circle cx="71.30453" cy="75.03072" r="1" fill="#dce5d3"/><circle cx="78.69557" cy="71.96925" r="1" fill="#dce5d3"/><circle cx="75.00005" cy="73.49999" r="3.5" fill="#e8f2df"/><circle cx="75.00005" cy="73.49999" r="3" fill="#f4ffeb"/><polyline points="77 110 67 98 57 110" fill="none" stroke="#dce5d3" stroke-linecap="round" stroke-linejoin="round" stroke-width="2"/><path d="M84.00005,139h-34a2,2,0,0,1-2-2V111a2,2,0,0,1,2-2h34a2,2,0,0,1,2,2v26A2,2,0,0,1,84.00005,139Z" fill="#dce5d3"/><rect x="52.00005" y="112.99999" width="30" height="22" rx="2" fill="#f4ffeb"/><rect x="56.00005" y="116.99999" width="22" height="2" rx="1" fill="#e8f2df"/><rect x="56.00005" y="120.99999" width="22" height="2" rx="1" fill="#e8f2df"/><rect x="59.00005" y="124.99999" width="16" height="2" rx="1" fill="#e8f2df"/><rect x="56.00005" y="128.99999" width="8" height="2" rx="1" fill="#e8f2df"/><rect x="70.00005" y="128.99999" width="8" height="2" rx="1" fill="#e8f2df"/><polyline points="183 110 173 98 163 110" fill="none" stroke="#dce5d3" stroke-linecap="round" stroke-linejoin="round" stroke-width="2"/><path d="M190,139H156a2,2,0,0,1-2-2V111a2,2,0,0,1,2-2h34a2,2,0,0,1,2,2v26A2,2,0,0,1,190,139Z" fill="#dce5d3"/><rect x="158.00005" y="112.99999" width="30" height="22" rx="2" fill="#f4ffeb"/><rect x="160.00005" y="116.99999" width="14" height="2" rx="1" fill="#e8f2df"/><rect x="160.00005" y="120.99999" width="13" height="2" rx="1" fill="#e8f2df"/><rect x="160.00005" y="124.99999" width="8" height="2" rx="1" fill="#e8f2df"/><rect x="160.00005" y="128.99999" width="10" height="2" rx="1" fill="#e8f2df"/><path d="M182.44535,130.83036,181,129.86682l-1.4453.96354A1,1,0,0,1,178,129.99831v-7.13149h6v7.13149A1,1,0,0,1,182.44535,130.83036Z" fill="#e8f2df"/><circle cx="181.00005" cy="117.99999" r="1" fill="#dce5d3"/><circle cx="181.00005" cy="125.99999" r="1" fill="#dce5d3"/><circle cx="185.00005" cy="121.99999" r="1" fill="#dce5d3"/><circle cx="177.00005" cy="121.99999" r="1" fill="#dce5d3"/><circle cx="183.82848" cy="119.17156" r="1" fill="#dce5d3"/><circle cx="178.17162" cy="124.82841" r="1" fill="#dce5d3"/><circle cx="183.82848" cy="124.82841" r="1" fill="#dce5d3"/><circle cx="178.17162" cy="119.17156" r="1" fill="#dce5d3"/><circle cx="182.53078" cy="118.30447" r="1" fill="#dce5d3"/><circle cx="179.46931" cy="125.6955" r="1" fill="#dce5d3"/><circle cx="179.46931" cy="118.30447" r="1" fill="#dce5d3"/><circle cx="182.53078" cy="125.6955" r="1" fill="#dce5d3"/><circle cx="177.30453" cy="120.46925" r="1" fill="#dce5d3"/><circle cx="184.69557" cy="123.53072" r="1" fill="#dce5d3"/><circle cx="177.30453" cy="123.53072" r="1" fill="#dce5d3"/><circle cx="184.69557" cy="120.46925" r="1" fill="#dce5d3"/><circle cx="181.00005" cy="121.99999" r="3.5" fill="#e8f2df"/><circle cx="181.00005" cy="121.99999" r="3" fill="#f4ffeb"/><polygon points="210 159 30 159 44.935 173.935 195.662 173.935 210 159" fill="#dce5d3"/><rect x="35.00001" y="155" width="170" height="2" fill="#dce5d3"/></g><path d="M126.1835,96.74337a37.73461,37.73461,0,0,1,20.09417,18.11709c3.49137,7.48354,3.30643,11.07869.38646,12.8822,0,0-5.01368,3.86466-8.25514-2.83409Z" fill="#c79b9b"/><path d="M126.1835,96.74337a37.73461,37.73461,0,0,1,20.09417,18.11709c3.49137,7.48354,3.30643,11.07869.38646,12.8822,0,0-5.01368,3.86466-8.25514-2.83409Z" fill="#b28b8b"/><path d="M137.1259,118.54981l2.2535-5.1064a15.39928,15.39928,0,0,0,.9449-7.08684,38.61578,38.61578,0,0,0-4.06638-3.79944l-3.1201,1.73992Z" fill="#977"/><ellipse cx="120.61914" cy="124.88016" rx="23.18797" ry="25.76441" fill="#48617a"/><polygon points="126.803 174.376 114.436 174.376 107.222 141.398 134.017 141.398 126.803 174.376" fill="#48617a"/><polygon points="123.711 174.376 120.619 174.376 120.595 149.642 123.711 174.376" fill="#3f556b"/><polygon points="131.537 152.734 109.025 149.642 107.222 141.398 134.017 141.398 131.537 152.734" fill="#3f556b"/><polygon points="125.772 104.297 115.466 104.297 105.16 143.459 136.078 143.459 125.772 104.297" fill="#7e8da6"/><path d="M127.8392,114.21358,125.772,106.3582H115.46624l-2.11587,8.04037a48.2562,48.2562,0,0,0,14.48883-.185Z" fill="#707e94"/><path d="M138.13892,142.3778a25.65542,25.65542,0,0,0,4.54211-9.08347l-6.60326-17.52652Z" fill="#3f556b"/><path d="M103.09935,142.3778a25.65523,25.65523,0,0,1-4.5421-9.08347l6.60326-17.52652Z" fill="#3f556b"/><polygon points="138.139 147.581 125.772 147.581 123.711 104.297 136.078 113.707 138.139 147.581" fill="#48617a"/><polygon points="115.466 147.581 103.099 147.581 105.16 113.707 117.527 104.297 115.466 147.581" fill="#48617a"/><path d="M120.00005,111.7652a50.62892,50.62892,0,0,1-12.30553-1.53076,8.24474,8.24474,0,0,1,3.99953-15.99708,33.43712,33.43712,0,0,0,16.612,0,8.24474,8.24474,0,0,1,3.99952,15.99708A50.62277,50.62277,0,0,1,120.00005,111.7652Z" fill="#c79b9b"/><path d="M138.30385,100.23614a8.2425,8.2425,0,0,0-9.9978-5.99878,33.43712,33.43712,0,0,1-16.612,0,8.25321,8.25321,0,0,0-9.008,3.65784c6.52778.49906,27.71448,2.84371,29.61951,12.33924A8.24412,8.24412,0,0,0,138.30385,100.23614Z" fill="#b28b8b"/><path d="M120.2256,97.77267c.91113,0,.91113,13.9878,0,13.9878s-1.13445-6.05716-1.13445-6.9939S119.31448,97.77267,120.2256,97.77267Z" fill="#977"/><path d="M130.52226,96.67865c.20911-.06445.653.75027,1.01634,2.079a18.20946,18.20946,0,0,1,.57059,4.98556c-.03712,3.677-1.15881,7.15308-1.58345,7.03675-.44917-.10547-.36732-1.64838-.31741-3.27243.07385-1.62482.08772-3.33512.08328-3.79291.00978-.4584.06958-2.16321.00084-3.77C130.25156,98.33813,130.08261,96.81552,130.52226,96.67865Z" fill="#977"/><path d="M109.90243,96.829c.22061.09506.01484.94058-.16335,2.19611a24.78342,24.78342,0,0,0-.21742,4.65252c.13015,3.42.85715,6.88684.3918,6.9989-.43535.10874-1.10036-1.32183-1.54615-2.96154a18.943,18.943,0,0,1-.66205-3.966,14.82,14.82,0,0,1,.44779-4.04754C108.59249,98.00085,109.49461,96.63773,109.90243,96.829Z" fill="#977"/><path d="M111.36357,58.17876s4.12231-20.09624-13.39541-23.44561C81.613,31.60605,72.97668,52.51059,72.97668,52.51059S59.32155,82.655,96.16465,77.16242Z" fill="#b1bdc4"/><path d="M78.45253,53.45987c-.28229-.1572.40677-1.8667,1.80139-4.27246a25.0246,25.0246,0,0,1,7.0467-7.54508c.4102-.261.80854-.53839,1.23055-.77807l1.33034-.61215.66024-.29511.69624-.20148c.46325-.12667.91534-.26907,1.3703-.36712a12.656,12.656,0,0,1,5.06907.121c2.89865.76816,4.33718,2.2456,4.13964,2.51285-.22141.2594-.99429.02554-2.14005-.21945a14.811,14.811,0,0,0-4.18979-.36329,13.164,13.164,0,0,0-6.6717,2.48325,27.54354,27.54354,0,0,0-5.63873,4.953c-.54142.614-1.08584,1.21256-1.60838,1.76172-.469.5907-.9186,1.1283-1.32743,1.57373C79.40386,53.10138,78.75,53.62784,78.45253,53.45987Z" fill="#a1acb2"/><path d="M78.92268,76.46853c3.88347,1.41617,9.42193,1.85968,17.242.69387l6.67761-8.34041-.29727-8.05427S91.26424,76.404,78.92268,76.46853Z" fill="#a1acb2"/><path d="M128.63652,58.17876s-4.1223-20.09624,13.39542-23.44561c16.3552-3.1271,24.99147,17.77744,24.99147,17.77744s13.65514,30.14436-23.188,24.65183Z" fill="#b1bdc4"/><path d="M160.95929,53.79422c-.31218.1777-1.43015-1.24026-3.02516-3.33438a32.01555,32.01555,0,0,0-6.72949-6.53708c-.3501-.22165-.68978-.4668-1.04339-.675l-1.09584-.52392-.54013-.26566-.55981-.17679c-.3716-.114-.73468-.25192-1.09883-.35229a12.82319,12.82319,0,0,0-4.10883-.24478c-2.44722.32013-3.96942,1.17193-4.14293.87481-.22574-.25717.26024-.98144,1.32791-1.68173a9.981,9.981,0,0,1,4.559-1.48773,10.563,10.563,0,0,1,1.38556-.03986l1.37394.13053a11.49413,11.49413,0,0,1,1.29328.29342,7.42489,7.42489,0,0,1,1.18758.35785c.71912.30982,1.37671.57965,1.88687.83679l1.0705.67389a21.26276,21.26276,0,0,1,5.7559,5.96689c.47028.7294.91941,1.45,1.3181,2.12412.34069.709.63567,1.37024.8613,1.94446C161.08621,52.82718,161.25674,53.62625,160.95929,53.79422Z" fill="#a1acb2"/><path d="M137.45512,60.76772l-.29727,8.05427,6.67761,8.34041c7.82,1.16581,13.35849.7223,17.242-.69387C148.73585,76.404,137.45512,60.76772,137.45512,60.76772Z" fill="#a1acb2"/><path d="M149.88676,82.31531c0-14.22929-17.60179-35.0396-29.88671-35.0396-12.9642,0-29.88671,20.81031-29.88671,35.0396s13.38073,16.48922,29.88671,16.48922S149.88676,96.54459,149.88676,82.31531Z" fill="#c1cfd6"/><path d="M118.809,94.0813c-.10444.045-.24626-.00586-.40174-.11389-.1429-.118-.33366-.26938-.54946-.43665a5.29746,5.29746,0,0,0-1.77283-.88327c-1.46965-.44455-3.20625-.39355-3.25931-.83884-.0929-.45071.68106-.8583,1.58627-1.00421a5.54505,5.54505,0,0,1,2.18979.10025,4.211,4.211,0,0,1,1.91954,1.28394C119.18055,92.98981,119.22175,93.93842,118.809,94.0813Z" fill="#48617a"/><path d="M128.04984,84.48624c-.22429.135-.98416-.97461-2.30043-2.38388-1.31173-1.36438-3.40568-3.00138-5.74936-3.00434-2.34368.003-4.43764,1.64-5.74937,3.00434-1.31627,1.40927-2.07613,2.51892-2.30042,2.38388-.36383-.19187.46908-2.47,2.29588-4.433a9.886,9.886,0,0,1,3.21331-2.25674,8.67262,8.67262,0,0,1,1.54134-.41895l.99926-.09735.99925.09735a8.67217,8.67217,0,0,1,1.54134.41895,9.8859,9.8859,0,0,1,3.21331,2.25674C127.58076,82.01627,128.41367,84.29437,128.04984,84.48624Z" fill="#c1cfd6"/><path d="M105.17457,74.34637c.19688-.721,1.54879-.90811,2.87529-1.05719a5.6276,5.6276,0,0,0,1.66642-.366A5.94747,5.94747,0,0,0,111.844,71.5c1.32637-1.32669,2.03419-3.07672,2.37-2.99338.34581.05142.30568,2.09253-.92183,4.0987a7.00248,7.00248,0,0,1-2.5347,2.45126,6.17834,6.17834,0,0,1-2.41742.79263,3.76152,3.76152,0,0,1-1.37991-.06109,4.66086,4.66086,0,0,1-.579-.14444,4.29458,4.29458,0,0,1-.46687-.24066C105.35584,75.0675,105.0877,74.69092,105.17457,74.34637Z" fill="#48617a"/><path d="M134.82553,74.34637c.08687.34455-.18127.72113-.7397,1.05668a4.2955,4.2955,0,0,1-.46687.24066,4.6613,4.6613,0,0,1-.579.14444,3.76153,3.76153,0,0,1-1.37991.06109,6.17834,6.17834,0,0,1-2.41742-.79263,7.00232,7.00232,0,0,1-2.5347-2.45126c-1.22752-2.00617-1.26764-4.04728-.92184-4.0987.33585-.08334,1.04368,1.66669,2.37,2.99338a5.94735,5.94735,0,0,0,2.12767,1.42313,5.62765,5.62765,0,0,0,1.66643.366C133.27673,73.43826,134.62865,73.6254,134.82553,74.34637Z" fill="#48617a"/><path d="M128.04984,84.48624c-.22429.135-.98416-.97461-2.30043-2.38388-1.31173-1.36438-3.40568-3.00138-5.74936-3.00434-2.34368.003-4.43764,1.64-5.74937,3.00434-1.31627,1.40927-2.07613,2.51892-2.30042,2.38388-.36383-.19187.46908-2.47,2.29588-4.433a9.886,9.886,0,0,1,3.21331-2.25674,8.67262,8.67262,0,0,1,1.54134-.41895l.99926-.09735.99925.09735a8.67217,8.67217,0,0,1,1.54134.41895,9.8859,9.8859,0,0,1,3.21331,2.25674C127.58076,82.01627,128.41367,84.29437,128.04984,84.48624Z" fill="#b1bdc4"/><path d="M123.4353,74.35236a3.43526,3.43526,0,0,0-6.87051,0c0,3.14971,1.538,6.87051,3.43526,6.87051S123.4353,77.50207,123.4353,74.35236Z" fill="#48617a"/><path d="M121.68808,76.27768c-.335-.04694-.2607-1.23193-.66206-2.14221-.35012-.93936-1.26052-1.49073-1.15979-1.764.0738-.31873.7267-.29923,1.3012.06827a2.94327,2.94327,0,0,1,1.03181,1.20315,3.33448,3.33448,0,0,1,.17568,1.53211C122.2852,75.81439,121.99159,76.32663,121.68808,76.27768Z" fill="#c1cfd6"/><path d="M114.13336,56.79288c-.15493.733-2.95814.16711-4.90887,1.27887a7.52705,7.52705,0,0,0-2.40332,2.07361c-.60422.73019-.98275,1.3-1.31657,1.20257-.67564-.11307-.76887-1.58331-.08214-2.988a6.09721,6.09721,0,0,1,2.55548-2.71322,5.778,5.778,0,0,1,1.40508-.47711c.34112-.04807.71761-.11087,1.10251-.12732.38476.01144.77979.03518,1.15926.07336C113.16465,55.38745,114.30487,56.16229,114.13336,56.79288Z" fill="#48617a"/><path d="M125.70546,56.13571c-.07826-.30646.58347-.77731,1.76827-1.05215a6.63012,6.63012,0,0,1,6.54989,2.14825,6.49139,6.49139,0,0,1,1.09715,1.84964c.44638,1.16156.35683,2.03073.03479,2.11752-.6661.126-1.37182-.88021-2.26419-1.67324a7.86732,7.86732,0,0,0-2.11577-1.454,8.833,8.833,0,0,0-2.43628-.90619C127.16477,56.91867,125.8833,56.81882,125.70546,56.13571Z" fill="#48617a"/><path d="M98.125,174.93521h23.49414l-1-4.559s-9.20819-4-13.93518-4a8.559,8.559,0,0,0-8.559,8.559Z" fill="#3f556b"/><path d="M143.11327,174.93521H119.61914l1-4.559s9.20818-4,13.93517-4a8.559,8.559,0,0,1,8.559,8.559Z" fill="#3f556b"/><g clip-path="url(#a)"><rect x="37.48892" y="173.93521" width="165.02219" height="59.06478" fill="#bf7878"/></g></svg>